# xmcd
#
# Track frame offsets:
#	150
#	19981
#	36207
#	50679
#	66698
#	81123
#	97292
#	115394
#	131718
#	152715
#	171389
#	189238
#	205055
#	230922
#
# Disc length: 3763 seconds
#
# Revision: 1
# Processed by: cddbd v1.5.1PL2 Copyright (c) Steve Scherf et al.
# Submitted via: audiograbber 1.83.01
#
DISCID=d40eb10e
DTITLE=Various Artist - CMA Awards 1998
DYEAR=1998
DGENRE=Country
TTITLE0=The Mavericks - Dance the night away
TTITLE1=Lee Ann Womack - You've got to talk to me
TTITLE2=Dixie Chicks - There's your trouble
TTITLE3=Tim McGraw - Just to see you smile
TTITLE4=Shania Twain - You're still the one
TTITLE5=Garth Brooks and Trisha Yearwood - In another's eyes
TTITLE6=Tim McGraw - You're gone
TTITLE7=Martina McBride - A broken wing
TTITLE8=Vince Gill - If ever you have forever in mind
TTITLE9=Patty Loveless and George Jones - You don't seem to miss me
TTITLE10=Reba McEntire w. Brokks and Dunn - If you see him - If you see her
TTITLE11=George Strait - I just want to dance with you
TTITLE12=Faith Hill - This kiss
TTITLE13=data - Data Track
EXTD=
EXTT0=
EXTT1=
EXTT2=
EXTT3=
EXTT4=
EXTT5=
EXTT6=
EXTT7=
EXTT8=
EXTT9=
EXTT10=
EXTT11=
EXTT12=
EXTT13=
PLAYORDER=
